<svg id="Capa_1" enable-background="new 0 0 512 512" height="512" viewBox="0 0 512 512" width="512" xmlns="http://www.w3.org/2000/svg"><g><g><g><g><g><g><g><g><circle cx="256" cy="256" fill="#c7eefe" r="256"/></g></g></g></g></g></g></g><path d="m512 256c0-.578-.002-1.156-.006-1.734l-152.747-152.748-103.247 354.649 50.794 50.794c117.053-23.562 205.206-126.967 205.206-250.961z" fill="#9fdafe"/><g><path d="m402.914 206.035c0 120.546-146.914 250.132-146.914 250.132s-146.914-132.6-146.914-250.132c0-81.139 65.776-146.914 146.914-146.914s146.914 65.775 146.914 146.914z" fill="#e06a24"/></g><g><path d="m256 456.167s146.914-129.586 146.914-250.132c0-81.139-65.776-146.914-146.914-146.914z" fill="#d24611"/></g><g><circle cx="256" cy="204.701" fill="#fff" r="103.247"/></g><g><path d="m256 307.948c57.022 0 103.247-46.225 103.247-103.247s-46.225-103.247-103.247-103.247z" fill="#e9ecf4"/></g><path d="m319.203 186.701h-45.203v-45.203h-36v45.203h-45.204v36h45.204v45.204h36v-45.204h45.203z" fill="#e06a24"/><path d="m319.203 186.701h-45.203v-45.203h-18v126.407h18v-45.204h45.203z" fill="#d24611"/></g></svg>